<?xml version="1.0" encoding="UTF-8" standalone="no"?><!DOCTYPE svg PUBLIC "-//W3C//DTD SVG 1.1//EN" "http://www.w3.org/Graphics/SVG/1.1/DTD/svg11.dtd"><svg width="100%" height="100%" viewBox="0 0 152 167" version="1.1" xmlns="http://www.w3.org/2000/svg" xmlns:xlink="http://www.w3.org/1999/xlink" xml:space="preserve" xmlns:serif="http://www.serif.com/" style="fill-rule:evenodd;clip-rule:evenodd;stroke-linejoin:round;stroke-miterlimit:2;"><rect id="Page-1" serif:id="Page 1" x="-208.058" y="-2668.285" width="2550" height="3300" style="fill:none;"/><g id="Layer-1" serif:id="Layer 1"><path d="M146.439,97.081c-3.094,-2.592 -6.189,-5.183 -9.124,-7.641c-3.731,3.425 -2.368,7.455 -1.723,11.44c1.76,10.885 2.671,21.832 2.18,33.207c-3.768,-8.837 -7.278,-17.465 -11.537,-25.954c-13.564,20.779 -29.07,39.772 -45.693,58.231c-22.531,-25.74 -44.478,-51.776 -59.24,-82.994c-3.114,0.872 -5.082,2.377 -7.051,5.467c-2.02,-1.561 -4.167,-2.931 -6.7,-3.439c-2.459,-0.492 -4.951,-0.819 -7.55,-1.238c0.315,-3.078 0.669,-6.112 0.921,-9.155c0.178,-2.148 0.094,-4.213 2.956,-4.919c1.396,-0.344 2.299,-1.856 3.157,-3.107c1.162,-1.696 2.134,-3.585 3.558,-5.025c2.809,-2.84 2.813,-5.817 1.756,-9.456c-1.693,-5.827 -2.732,-11.828 -3.089,-17.92c-0.08,-1.364 0.26,-2.212 1.574,-2.951c8.957,-5.039 17.757,-10.356 26.893,-15.076c0.627,-0.324 0.471,-0.763 0.403,-1.231c-0.376,-2.594 -0.759,-5.188 -1.2,-8.197c1.802,2.301 3.374,4.242 4.863,6.245c0.534,0.719 0.936,0.779 1.818,0.508c2.179,-0.669 2.87,-1.75 2.116,-4.028c-0.865,-2.614 -1.398,-5.339 -2.618,-7.863c0.524,-0.209 0.783,0.228 1.091,0.455c2.913,2.155 5.828,4.308 8.704,6.512c0.603,0.462 1.069,0.484 1.754,0.205c8.248,-3.355 16.543,-6.578 25.114,-9.046c1.113,-0.32 2.004,0.109 2.931,0.409c23.858,7.735 46.85,17.363 67.937,31.148c0.959,0.627 1.355,1.291 1.303,2.45c-0.387,8.482 -2.481,16.646 -4.622,24.79c-2.08,7.916 -4.158,15.843 -7.211,23.461c-0.238,0.594 0.065,0.941 0.287,1.344c1.825,3.311 3.667,6.613 5.503,9.918c-0.218,0.599 -0.509,0.105 -0.771,0.054c-0.49,-0.355 -0.768,-0.883 -1.094,-1.37c-3.342,-4.996 -6.642,-10.022 -10.132,-14.918c-3.395,-4.764 -7.449,-8.909 -11.9,-12.681c-0.647,-0.549 -1.266,-1.132 -1.955,-1.633c-0.283,-0.207 -0.598,-0.425 -0.52,-0.886c0.343,-0.419 0.783,-0.217 1.162,-0.106c3.135,0.921 6.271,1.843 9.221,3.283c3.111,1.52 6.219,3.048 9.25,4.767c-1.929,-2.633 -3.988,-5.155 -6.115,-7.624c-2.153,-2.499 -4.395,-4.915 -6.748,-7.226c-2.331,-2.287 -4.757,-4.472 -7.203,-6.635c-2.45,-2.167 -5.094,-4.114 -7.502,-6.365c0.595,-0.599 1.124,-0.411 1.626,-0.329c3.837,0.626 7.659,1.335 11.499,1.942c0.312,0.049 0.629,0.185 1.156,-0.042c-7.415,-8.374 -15.139,-16.187 -25.822,-20.443c1.931,-1.513 4.018,-2.434 6.211,-3.164c2.21,-0.736 4.511,-1.054 6.788,-1.58c-7.342,-2.212 -14.842,-3.28 -22.163,-3.157c3.809,0.667 7.907,1.599 11.903,2.95c0.477,0.161 0.472,0.179 0.911,0.935c-3.994,1.196 -8.081,1.831 -12.189,3.057c0.635,0.346 1.161,0.576 1.685,0.804c7.658,3.344 14.915,7.407 21.789,12.155c1.426,0.985 2.754,2.098 4.036,3.264c0.287,0.261 0.564,0.546 0.609,1.006c-0.393,0.356 -0.804,0.13 -1.187,0.023c-3.811,-1.069 -7.66,-1.954 -11.614,-2.276c-3.161,-0.257 -6.325,-0.288 -9.48,0.14c-1.607,0.218 -3.224,0.37 -5.027,0.81c1.591,0.735 3.011,1.302 4.399,1.933c4.444,2.022 8.635,4.496 12.762,7.073c6.987,4.364 13.684,9.152 20.211,14.177c0.519,0.4 1.013,0.826 1.464,1.3c0.18,0.19 0.358,0.422 0.152,0.692c-0.197,0.259 -0.465,0.172 -0.716,0.078c-0.184,-0.069 -0.351,-0.174 -0.522,-0.269c-6.479,-3.589 -13.367,-6.074 -20.585,-7.693c-2.124,-0.476 -4.246,-0.942 -6.403,-1.279c3.408,2.335 6.725,4.769 10.019,7.232c5.377,4.02 10.406,8.442 14.958,13.373c3.986,4.318 7.868,8.732 11.716,13.176c2.137,2.468 4.28,4.931 6.38,7.431c0.232,0.277 0.475,0.542 0.516,0.925c0.004,0.216 -0.036,0.413 -0.233,0.543"/><path d="M145.24,93.511c0.22,0.041 0.44,0.082 0.66,0.122c1.094,1.905 2.187,3.811 3.28,5.716c-0.099,0.062 -0.196,0.124 -0.295,0.185c-0.815,-0.818 -1.631,-1.635 -2.446,-2.452c0.004,-0.212 0.008,-0.424 0.012,-0.636c0.423,-0.156 0.418,0.273 0.64,0.451c-0.524,-0.799 -1.077,-1.547 -1.57,-2.334c-0.2,-0.319 -0.504,-0.617 -0.281,-1.051" style="fill:#221510;"/><path d="M14.19,82.889c-1.546,0.344 -3.079,0.855 -4.642,0.975c-1.085,0.083 -2.225,-0.321 -3.316,-0.602c-1.285,-0.331 -2.545,-0.764 -3.965,-1.2c0.742,-3.266 1.463,-6.444 2.193,-9.62c0.033,-0.145 0.131,-0.365 0.239,-0.392c4.285,-1.092 5.116,-5.272 7.229,-8.237c4.28,-6.009 8.319,-12.175 13.119,-17.817c6.522,-7.665 13.419,-14.974 20.464,-22.144c2.699,-2.747 1.627,-6.119 1.945,-9.237c0.177,-1.74 -0.359,-3.553 -0.58,-5.333c-0.033,-0.262 0.076,-0.36 0.302,-0.49c0.326,-0.187 0.375,0.044 0.521,0.209c3.06,3.452 6.129,6.897 9.182,10.355c0.499,0.565 1.029,0.763 1.824,0.812c4.155,0.253 8.289,0.658 12.403,1.405c3.011,0.547 6.043,0.988 9.017,1.712c4.949,1.204 9.81,2.675 14.599,4.445c3.84,1.42 7.507,3.193 11.254,4.926c-4.944,-0.419 -9.88,-0.019 -14.813,-0.195c-2.76,-0.658 -5.503,-1.374 -8.239,-2.131c-2.822,-0.781 -5.738,-1.183 -8.604,-1.791c-3.348,-0.71 -6.765,-0.982 -10.104,-1.722c-0.259,-0.057 -0.516,-0.059 -0.873,0.141c0.108,1.102 0.457,2.19 0.759,3.268c0.363,1.298 0.489,2.635 0.643,3.947c0.365,3.117 0.469,6.273 -0.202,9.364c-0.887,4.087 -1.968,8.124 -4.137,11.772c-0.64,1.077 -1.463,1.473 -2.764,1.329c-3.406,-0.378 -6.754,0.005 -10.049,1.012c-6.075,1.858 -11.297,5.191 -16.218,9.099c-2.546,2.022 -4.705,4.433 -6.984,6.721c-0.909,0.913 -1.699,1.983 -2.273,3.173c-0.318,0.659 -0.487,1.354 -0.456,2.086c0.034,0.807 -0.355,1.278 -1.102,1.523c-1.584,0.518 -3.148,1.091 -4.702,1.689c-0.605,0.232 -1.217,0.449 -1.671,0.947" style="fill:#0f13ef;"/><path d="M80.404,156.306c0.389,-2.282 0.714,-4.242 1.058,-6.199c0.473,-2.695 0.996,-5.381 1.432,-8.081c0.667,-4.126 1.369,-8.249 1.886,-12.395c0.424,-3.398 0.539,-6.834 0.902,-10.241c0.59,-5.53 0.474,-11.074 0.322,-16.61c-0.122,-4.444 -1.333,-8.715 -2.465,-12.997c-1.309,-4.951 -2.909,-9.808 -4.615,-14.624c-1.586,-4.478 -3.254,-8.936 -5.262,-13.258c-0.714,-1.537 0.519,-2.913 0.796,-4.374c0.278,-1.463 1.154,-2.769 1.214,-4.311c0.008,-0.21 0.236,-0.497 0.433,-0.581c0.121,-0.052 0.438,0.17 0.565,0.343c4.982,6.789 9.252,14.015 12.892,21.596c2.452,5.108 4.791,10.284 6.888,15.546c2.129,5.344 4.022,10.783 5.813,16.261c1.684,5.149 3.064,10.371 4.55,15.569c0.546,1.909 -0.584,3.09 -1.656,4.368c-3.477,4.145 -6.938,8.304 -10.375,12.482c-3.572,4.342 -7.105,8.715 -10.665,13.068c-1.127,1.379 -2.285,2.732 -3.714,4.438" style="fill:#0f13ef;"/><path d="M66.836,67.804c0.719,3.68 0.86,7.295 0.936,10.913c0.004,0.198 -0.225,0.471 -0.418,0.593c-9.743,6.155 -16.634,15.054 -23.3,24.174c-0.711,0.972 -1.437,1.932 -2.255,3.031c-4.92,-7.292 -9.3,-14.767 -13.12,-22.934c4.135,0.443 5.386,-2.496 6.905,-5.247c2.019,-3.658 7.878,-6.402 12.006,-5.912c6.57,0.78 12.621,-0.889 18.315,-4.09c0.278,-0.156 0.555,-0.314 0.93,-0.527" style="fill:#ea9927;"/><path d="M145.24,93.511c0.813,1.315 1.625,2.63 2.437,3.946c-0.084,0.081 -0.169,0.161 -0.253,0.242c-0.324,-0.417 -0.649,-0.835 -0.973,-1.253c-13.245,-15.697 -26.348,-31.543 -44.365,-42.309c3.492,0.259 6.781,1.072 10.063,1.914c3.352,0.86 6.666,1.839 9.871,3.159c3.137,1.291 6.19,2.758 9.267,4.228c-12.366,-9.66 -24.957,-18.948 -39.576,-25.043c3.581,-2.173 16.597,-1.569 27.877,1.338c-1.625,-1.802 -3.403,-3.125 -5.233,-4.374c-1.86,-1.269 -3.74,-2.512 -5.661,-3.686c-1.891,-1.157 -3.825,-2.246 -5.773,-3.306c-1.977,-1.075 -3.973,-2.12 -5.999,-3.101c-2.017,-0.977 -4.081,-1.857 -6.429,-2.917c4.501,-1.081 8.733,-2.098 13.327,-3.201c-4.927,-1.758 -9.681,-2.8 -14.475,-3.739c8.435,-0.411 16.653,0.719 25.384,3.408c-5.52,0.783 -10.245,1.784 -14.46,4.569c10.962,4.21 18.791,12.278 26.592,21.179c-5.309,-0.896 -10.148,-1.712 -15.476,-2.612c11.026,8.595 20.673,17.861 28.958,29.256c-6.874,-3.914 -13.332,-7.429 -20.947,-9.104c0.887,0.752 1.532,1.336 2.214,1.873c8.466,6.665 14.295,15.505 20.115,24.355c1.146,1.743 2.343,3.453 3.516,5.178" style="fill:#ea9927;"/><path d="M67.88,82.503c-1.24,15.303 -6.801,29.092 -12.321,43.191c-2.238,-3.001 -4.339,-5.807 -6.426,-8.622c-0.661,-0.891 -1.165,-1.939 -1.956,-2.687c-1.831,-1.734 -1.37,-3.313 -0.284,-5.284c5.379,-9.762 12.579,-18.085 20.236,-26.063c0.145,-0.151 0.346,-0.25 0.75,-0.534" style="fill:#ea9927;"/><path d="M14.19,82.889c-0.176,-0.348 -0.234,-0.591 0.267,-0.769c2.285,-0.81 4.556,-1.663 6.825,-2.498c-0.1,-4.333 3.133,-6.642 5.703,-9.279c5.063,-5.194 10.94,-9.296 17.67,-12.019c4.268,-1.727 8.731,-2.625 13.42,-1.933c2.164,0.319 2.568,-1.804 3.101,-3.1c2.11,-5.124 3.81,-10.39 3.507,-16.059c-0.177,-3.326 -0.635,-6.61 -1.619,-9.805c-0.092,-0.299 -0.133,-0.614 -0.226,-1.058c2.196,0.312 4.279,0.562 6.345,0.913c2.661,0.452 5.311,0.968 7.959,1.488c4.752,0.932 9.475,1.984 14.024,3.691c-4.084,0.354 -8.162,0.801 -12.253,1.023c-2.039,0.111 -3.873,-1.057 -5.841,-1.495c-1.712,-0.38 -3.406,-0.841 -5.316,-1.319c0.906,2.906 1.474,5.699 1.419,8.568c-0.122,6.385 -0.901,12.621 -5.134,17.794c-1.922,2.349 -4.272,3.86 -7.619,3.515c-10.886,-1.12 -19.284,3.814 -26.597,11.238c-1.35,1.371 -2.731,2.713 -4.049,4.114c-1.195,1.27 -1.774,2.732 -0.959,4.62c-3.591,0.8 -7.109,1.584 -10.627,2.368" style="fill:#ea9927;"/><path d="M35.842,29.411c-5.317,3.111 -10.324,6.361 -13.974,11.958c3.631,-2.265 6.857,-4.278 10.083,-6.291c-4.854,4.763 -9.159,9.958 -13.219,15.73c-1.001,-4.969 -2.049,-9.601 -2.036,-14.388c0.001,-0.391 0.018,-0.751 0.417,-1.024c5.521,-3.778 11.668,-5.687 18.298,-6.164c0.083,-0.006 0.172,0.069 0.431,0.179" style="fill:#ea9927;"/><path d="M59.659,13.71c6.838,-2.685 13.674,-5.302 20.848,-7.293l0,8.467c-4.831,-0.073 -9.645,0.171 -14.437,0.637c-2.413,0.235 -4.728,0.693 -6.411,-1.811" style="fill:#ea9928;"/><path d="M113.791,75.702c3.737,1.924 7.01,3.587 10.251,5.31c0.31,0.165 0.484,0.685 0.614,1.075c2.797,8.439 4.817,17.081 6.693,25.759c0.027,0.123 0.015,0.253 0.044,0.852c-4.763,-11.715 -10.073,-22.639 -17.602,-32.996" style="fill:#ea9927;"/><path d="M27.185,53.552c7.917,-13.132 20.182,-21.411 31.923,-30.293c-1.189,1.353 -2.372,2.712 -3.569,4.058c-3.098,3.485 -6.951,6.31 -9.267,10.473c-1.045,1.88 -2.093,3.773 -2.623,5.899c-0.145,0.581 -0.535,1.124 -1.307,0.954c-5.009,-1.105 -8.313,1.424 -11.157,5.107c-0.989,1.281 -2.237,2.363 -3.377,3.524c-0.108,0.11 -0.298,0.138 -0.623,0.278" style="fill:#080b0b;"/><path d="M5.166,80.624c3.837,-1.766 7.374,-3.365 9.833,-7.101l0,5.335c-3.184,0.464 -6.277,1.587 -9.833,1.765" style="fill:#0f0f12;"/></g></svg>